<?xml version="1.0" encoding="utf-8"?>
<!-- Generator: Adobe Illustrator 16.0.0, SVG Export Plug-In . SVG Version: 6.00 Build 0)  -->
<!DOCTYPE svg PUBLIC "-//W3C//DTD SVG 1.1//EN" "http://www.w3.org/Graphics/SVG/1.1/DTD/svg11.dtd">
<svg version="1.1" id="Layer_1" xmlns="http://www.w3.org/2000/svg" xmlns:xlink="http://www.w3.org/1999/xlink" x="0px" y="0px"
	 width="613.028px" height="121.307px" viewBox="0 0 613.028 121.307" enable-background="new 0 0 613.028 121.307"
	 xml:space="preserve">
<g>
	<path fill="#1B1A1B" d="M183.646,28.943v3.396H150.3v34.923h21.342v3.396H150.3v13.218v5.214v3.396h-3.396v-0.121v-3.274V70.657
		v-3.396V32.339v-3.396h3.396H183.646z"/>
	<path fill="#1B1A1B" d="M259.676,92.484l-2.668-7.033c-5.456,4.365-12.368,7.033-19.887,7.033s-14.43-2.668-19.887-7.033
		l-2.668,7.033h-3.638l24.374-63.42v-0.121h3.638v0.121l24.373,63.42H259.676z M255.674,82.177l-18.553-48.383l-18.553,48.383
		c2.183,1.94,4.729,3.517,7.518,4.729c3.517,1.455,7.155,2.183,11.035,2.183c3.759,0,7.519-0.728,11.035-2.183
		C250.945,85.694,253.37,84.117,255.674,82.177z"/>
	<path fill="#1B1A1B" d="M332.796,76.599c0,9.701-8.003,15.885-19.159,15.885c-11.034,0-17.219-4.851-20.614-10.429l2.91-2.183
		c3.153,4.972,8.003,9.337,17.583,9.337c8.488,0,15.4-4.729,15.4-12.611c0-6.427-3.274-10.186-10.308-13.824
		c-0.97-0.485-1.939-0.97-2.91-1.334l-6.063-2.668c-2.426-1.091-4.487-2.183-6.306-3.395c-4.851-3.153-7.155-6.912-7.155-12.611
		c0-8.609,7.155-13.945,15.886-13.945c8.003,0,12.732,3.759,15.885,7.882l-2.91,2.183c-2.667-3.759-6.306-6.669-12.975-6.669
		c-7.64,0-12.126,4.123-12.126,10.429c0,4.85,1.94,7.639,6.427,10.428c1.455,0.728,3.031,1.577,4.851,2.425l5.941,2.668
		c1.698,0.728,3.274,1.455,4.608,2.183C329.158,64.473,332.796,69.323,332.796,76.599z"/>
	<path fill="#1B1A1B" d="M407.371,28.822v53.112v3.396v7.154h-3.396V85.33h-36.863v7.154h-3.396V85.33v-3.396V28.822h3.396v53.112
		h36.863V28.822H407.371z"/>
	<path fill="#1B1A1B" d="M437.443,92.484V28.822h3.396v63.662H437.443z"/>
	<path fill="#1B1A1B" d="M536.513,60.593c0,17.583-14.188,31.892-31.771,31.892s-31.771-14.309-31.771-31.892
		c0-17.462,14.188-31.771,31.771-31.771S536.513,43.131,536.513,60.593z M533.117,60.593c0-15.643-12.732-28.375-28.375-28.375
		s-28.375,12.732-28.375,28.375c0,15.764,12.732,28.496,28.375,28.496S533.117,76.356,533.117,60.593z"/>
	<path fill="#1B1A1B" d="M613.028,28.822v63.662h-3.396v-7.397l-40.865-50.809v58.206h-3.396V28.822h3.396l40.865,50.93v-50.93
		H613.028z"/>
</g>
<g>
	
		<rect x="17.765" y="17.765" transform="matrix(0.7071 -0.7071 0.7071 0.7071 -25.1231 60.6532)" fill="#1B1A1B" width="85.778" height="85.777"/>
	
		<rect x="23.255" y="23.254" transform="matrix(0.7071 -0.7071 0.7071 0.7071 -25.1231 60.6532)" fill="none" stroke="#FFFFFF" stroke-miterlimit="10" width="74.798" height="74.797"/>
	<g>
		<polyline fill="none" stroke="#FFFFFF" stroke-miterlimit="10" points="7.723,52.622 15.83,60.73 7.801,68.762 		"/>
	</g>
	<g>
		<polyline fill="none" stroke="#FFFFFF" stroke-miterlimit="10" points="113.623,68.764 105.516,60.656 113.545,52.624 		"/>
	</g>
	<path fill="#FFFFFF" d="M67.624,88.89h-2.446V78.519H43.289c-1.535,0-2.734-0.599-3.292-1.642
		c-0.557-1.043-0.387-2.373,0.468-3.648l0.649-0.968h-1.653c-1.538,0-2.734-0.598-3.283-1.641c-0.548-1.042-0.363-2.368,0.508-3.635
		l26.398-38.417c1.208-1.759,2.301-1.867,3.002-1.651c0.701,0.218,1.538,0.926,1.538,3.061v39.838h2.193
		c2.922,0,5.3,1.952,5.3,4.352s-2.378,4.353-5.3,4.353h-2.193V88.89z M67.624,76.072h2.193c1.52,0,2.854-0.891,2.854-1.906
		s-1.334-1.906-2.854-1.906h-2.193V76.072z M44.059,72.26l-1.562,2.33c-0.364,0.544-0.434,0.962-0.342,1.135
		c0.092,0.173,0.479,0.348,1.134,0.348h21.889V72.26H44.059z M45.698,69.814h19.479V40.749L45.698,69.814z M65.177,29.843
		c-0.025,0.034-0.051,0.071-0.077,0.109L38.701,68.369c-0.367,0.535-0.443,0.951-0.358,1.111c0.084,0.161,0.471,0.333,1.118,0.333
		h3.293l22.424-33.458v-6.379C65.178,29.93,65.177,29.886,65.177,29.843z"/>
</g>
</svg>
